<svg id="eKyEbOCnw2p1" xmlns="http://www.w3.org/2000/svg" xmlns:xlink="http://www.w3.org/1999/xlink" viewBox="0 0 684 1980" shape-rendering="geometricPrecision" text-rendering="geometricPrecision" project-id="9ec1d61a62ba4c219cad9c99ef62deac" export-id="bce355a9bb644b0ca4dcfe50615ab0ee" cached="false" style="background-color:#000"><rect width="173.303896" height="96.635199" rx="0" ry="0" transform="translate(47 372.682401)" fill="#712b13" stroke-width="0"/><g transform="matrix(1.069598 -0.004975 0.002269 0.487736 20.698562 223.724409)"><rect width="202" height="122" rx="5" ry="5" transform="matrix(-0.017087 -0.000019 -0.012362 10.909438 0.761381 -264.357422)" fill="#712b13" stroke="#f0997b" stroke-width="0.5"/><text dx="0" dy="0" font-family="&quot;Anthropic Sans&quot;" font-size="14" font-weight="500" transform="translate(115 380)" fill="#f5c4b3"><![CDATA[
Botom
]]></text><path d="M14,388h202" stroke="rgba(222,220,209,0.3)" stroke-width="0.5"/><text dx="0" dy="0" font-family="&quot;Anthropic Sans&quot;" font-size="12" font-weight="400" transform="translate(24 403)" fill="#f0997b"><![CDATA[
- jumpE : float
]]></text><text dx="0" dy="0" font-family="&quot;Anthropic Sans&quot;" font-size="12" font-weight="400" transform="translate(24 417)" fill="#f0997b"><tspan font-family="&quot;Anthropic Sans&quot;" font-size="12" font-weight="400" font-style="normal" transform="translate(24 417)" fill="#f0997b"><![CDATA[
- groundE : bool
]]></tspan></text><text dx="0" dy="0" font-family="&quot;Anthropic Sans&quot;" font-size="12" font-weight="400" transform="translate(24 431)" fill="#f0997b"><tspan font-family="&quot;Anthropic Sans&quot;" font-size="12" font-weight="400" font-style="normal" transform="translate(24 431)" fill="#f0997b"><![CDATA[
- animFrame : int
]]></tspan></text><text dx="0" dy="0" font-family="&quot;Anthropic Sans&quot;" font-size="12" font-weight="400" transform="translate(24 445)" fill="#f0997b"><![CDATA[
- animTimer : int
]]></text><g mask="url(#eKyEbOCnw2p35)"><path d="M14,451h202" stroke="rgba(222,220,209,0.3)" stroke-width="0.5"/><path d="M115,360v-24h225v-38" fill="none" stroke="#c2c0b6"/><path d="M560,360v-24h-220" fill="none" stroke="#c2c0b6"/><path d="M232,587h202" stroke="rgba(222,220,209,0.3)" stroke-width="0.5"/><path d="M115,524v-42" fill="none" stroke="#c2c0b6"/><path d="M333,524v-20h-218v-22" fill="none" stroke="#c2c0b6"/><path d="M115,686v-40" fill="none" stroke="#c2c0b6"/><path d="M115,850v-42" fill="none" stroke="#c2c0b6"/><path d="M440,724v32" stroke="#c2c0b6"/><path d="M232,726h124" stroke="rgba(222,220,209,0.15)" stroke-width="0.5"/><path d="M232,726h-117v82" opacity="0.6" fill="none" stroke="#9c9a92" stroke-width="0.8" stroke-dasharray="4,2"/><path d="M179,980v-20h-64v-2" opacity="0.7" fill="none" stroke="#c2c0b6" stroke-width="0.9" stroke-dasharray="3,2"/><path d="M290,980v-18h43v-480" opacity="0.6" fill="none" stroke="#c2c0b6" stroke-width="0.9" stroke-dasharray="3,2"/><path d="M314,980v-24h246v-474" opacity="0.6" fill="none" stroke="#c2c0b6" stroke-width="0.9" stroke-dasharray="3,2"/><path d="M344,1040h186v-228" opacity="0.6" fill="none" stroke="#c2c0b6" stroke-width="0.9" stroke-dasharray="3,2"/><path d="M263,1238v-28h250v-138" opacity="0.55" fill="none" stroke="#9c9a92" stroke-width="0.8" stroke-dasharray="4,2"/><path d="M434,1238v-24h86v-142" opacity="0.55" fill="none" stroke="#9c9a92" stroke-width="0.8" stroke-dasharray="4,2"/><path d="M340,1436v-36h-247v-94" opacity="0.5" fill="none" stroke="#9c9a92" stroke-width="0.8" stroke-dasharray="4,2"/><path d="M200,1436v-16h-21v-310" opacity="0.5" fill="none" stroke="#9c9a92" stroke-width="0.8" stroke-dasharray="4,2"/><path d="M460,1436v-16h57v-696" opacity="0.5" fill="none" stroke="#9c9a92" stroke-width="0.8" stroke-dasharray="4,2"/><path d="M500,1436v-10h13v-236" opacity="0.5" fill="none" stroke="#9c9a92" stroke-width="0.8" stroke-dasharray="4,2"/><mask id="eKyEbOCnw2p35" mask-type="luminance" x="-150%" y="-150%" height="400%" width="400%"><path d="M0,0h684v1980h-684L0,0Z" fill="#fff"/><rect width="50.177" height="19.333" rx="2" ry="2" transform="translate(20 14)"/><rect width="167.75" height="19.333" rx="2" ry="2" transform="translate(74 34)"/><rect width="110.811" height="19.333" rx="2" ry="2" transform="translate(73.333 52)"/><rect width="172.74" height="19.333" rx="2" ry="2" transform="translate(74 70)"/><rect width="65.203" height="19.333" rx="2" ry="2" transform="translate(307.661 112)"/><rect width="53.865" height="21.333" rx="2" ry="2" transform="translate(313.068 126)"/><rect width="123.645" height="19.333" rx="2" ry="2" transform="translate(215.333 151)"/><rect width="96.777" height="19.333" rx="2" ry="2" transform="translate(215.333 165)"/><rect width="97.719" height="19.333" rx="2" ry="2" transform="translate(215.333 179)"/><rect width="89.177" height="19.333" rx="2" ry="2" transform="translate(215.333 193)"/><rect width="82.865" height="19.333" rx="2" ry="2" transform="translate(215.333 207)"/><rect width="145.424" height="19.333" rx="2" ry="2" transform="translate(215.333 221)"/><rect width="181.365" height="19.333" rx="2" ry="2" transform="translate(216 243)"/><rect width="135.49" height="19.333" rx="2" ry="2" transform="translate(216 257)"/><rect width="209.341" height="19.333" rx="2" ry="2" transform="translate(216 271)"/><rect width="51.542" height="21.333" rx="2" ry="2" transform="translate(89.229 364)"/><rect width="85.82" height="19.333" rx="2" ry="2" transform="translate(20 389)"/><rect width="95.271" height="19.333" rx="2" ry="2" transform="translate(20 403)"/><rect width="101.204" height="19.333" rx="2" ry="2" transform="translate(20 417)"/><rect width="98.15" height="19.333" rx="2" ry="2" transform="translate(20 431)"/><rect width="170.271" height="19.333" rx="2" ry="2" transform="translate(20 451)"/><rect width="100.104" height="19.333" rx="2" ry="2" transform="translate(20 465)"/><rect width="58.875" height="21.333" rx="2" ry="2" transform="translate(303.682 364)"/><rect width="135.716" height="19.333" rx="2" ry="2" transform="translate(238 389)"/><rect width="135.59" height="19.333" rx="2" ry="2" transform="translate(238 403)"/><rect width="149.133" height="19.333" rx="2" ry="2" transform="translate(238 417)"/><rect width="170.271" height="19.333" rx="2" ry="2" transform="translate(238 438)"/><rect width="100.104" height="19.333" rx="2" ry="2" transform="translate(238 452)"/><rect width="110.781" height="19.333" rx="2" ry="2" transform="translate(238 466)"/><rect width="47.255" height="21.333" rx="2" ry="2" transform="translate(536.49 364)"/><rect width="137.943" height="19.333" rx="2" ry="2" transform="translate(456 389)"/><rect width="134.802" height="19.333" rx="2" ry="2" transform="translate(456 403)"/><rect width="114.11" height="19.333" rx="2" ry="2" transform="translate(456 417)"/><rect width="149.133" height="19.333" rx="2" ry="2" transform="translate(456 431)"/><rect width="170.271" height="19.333" rx="2" ry="2" transform="translate(456 452)"/><rect width="100.104" height="19.333" rx="2" ry="2" transform="translate(456 466)"/><rect width="88.317" height="21.333" rx="2" ry="2" transform="translate(70.958 528)"/><rect width="86.833" height="19.333" rx="2" ry="2" transform="translate(20 553)"/><rect width="71.546" height="19.333" rx="2" ry="2" transform="translate(20 567)"/><rect width="71.876" height="19.333" rx="2" ry="2" transform="translate(20 581)"/><rect width="92.39" height="19.333" rx="2" ry="2" transform="translate(20 595)"/><rect width="170.271" height="19.333" rx="2" ry="2" transform="translate(20 616)"/><rect width="100.104" height="19.333" rx="2" ry="2" transform="translate(20 630)"/><rect width="53.594" height="21.333" rx="2" ry="2" transform="translate(306.203 528)"/><rect width="98.552" height="19.333" rx="2" ry="2" transform="translate(238 553)"/><rect width="108" height="19.333" rx="2" ry="2" transform="translate(238 567)"/><rect width="170.271" height="19.333" rx="2" ry="2" transform="translate(238 588)"/><rect width="100.104" height="19.333" rx="2" ry="2" transform="translate(238 602)"/><rect width="62.115" height="21.333" rx="2" ry="2" transform="translate(83.609 690)"/><rect width="143.841" height="19.333" rx="2" ry="2" transform="translate(20 715)"/><rect width="105.914" height="19.333" rx="2" ry="2" transform="translate(20 729)"/><rect width="85.708" height="19.333" rx="2" ry="2" transform="translate(20 743)"/><rect width="128.99" height="19.333" rx="2" ry="2" transform="translate(20 757)"/><rect width="215.25" height="19.333" rx="2" ry="2" transform="translate(20 778)"/><rect width="174.177" height="19.333" rx="2" ry="2" transform="translate(20 792)"/><rect width="108.99" height="21.333" rx="2" ry="2" transform="translate(60.505 854)"/><rect width="67.292" height="19.333" rx="2" ry="2" transform="translate(20 879)"/><rect width="97.556" height="19.333" rx="2" ry="2" transform="translate(20 893)"/><rect width="181.125" height="19.333" rx="2" ry="2" transform="translate(20 914)"/><rect width="100.104" height="19.333" rx="2" ry="2" transform="translate(20 928)"/><rect width="83.56" height="19.333" rx="2" ry="2" transform="translate(475.146 528)"/><rect width="49.434" height="21.333" rx="2" ry="2" transform="translate(492.401 542)"/><rect width="115.563" height="19.333" rx="2" ry="2" transform="translate(376 567)"/><rect width="115.065" height="19.333" rx="2" ry="2" transform="translate(376 581)"/><rect width="83.529" height="19.333" rx="2" ry="2" transform="translate(376 595)"/><rect width="70.316" height="19.333" rx="2" ry="2" transform="translate(376 609)"/><rect width="68.99" height="19.333" rx="2" ry="2" transform="translate(376 623)"/><rect width="142.844" height="19.333" rx="2" ry="2" transform="translate(376 637)"/><rect width="98.146" height="19.333" rx="2" ry="2" transform="translate(376 651)"/><rect width="84.656" height="19.333" rx="2" ry="2" transform="translate(376 665)"/><rect width="194.927" height="19.333" rx="2" ry="2" transform="translate(376 686)"/><rect width="167.531" height="19.333" rx="2" ry="2" transform="translate(376 700)"/><rect width="131.031" height="19.333" rx="2" ry="2" transform="translate(376 710)"/><rect width="68.719" height="21.333" rx="2" ry="2" transform="translate(405.641 760)"/><rect width="102.296" height="19.333" rx="2" ry="2" transform="translate(388.74 778)"/><rect width="65.083" height="21.333" rx="2" ry="2" transform="translate(564.458 760)"/><rect width="133.173" height="19.333" rx="2" ry="2" transform="translate(536 785)"/><rect width="135.854" height="19.333" rx="2" ry="2" transform="translate(536 798)"/><rect width="65.365" height="21.333" rx="2" ry="2" transform="translate(261.318 690)"/><rect width="51.944" height="19.333" rx="2" ry="2" transform="translate(267.911 706)"/><rect width="113.406" height="19.333" rx="2" ry="2" transform="translate(238 726)"/><rect width="121.781" height="19.333" rx="2" ry="2" transform="translate(238 740)"/><rect width="144.24" height="19.333" rx="2" ry="2" transform="translate(238 752)"/><rect width="39.261" height="21.333" rx="2" ry="2" transform="translate(495.479 854)"/><rect width="189.271" height="19.333" rx="2" ry="2" transform="translate(376 879)"/><rect width="159.76" height="19.333" rx="2" ry="2" transform="translate(376 893)"/><rect width="100.104" height="19.333" rx="2" ry="2" transform="translate(376 907)"/><rect width="92.313" height="21.333" rx="2" ry="2" transform="translate(132.844 984)"/><rect width="128.531" height="19.333" rx="2" ry="2" transform="translate(20 1009)"/><rect width="154.552" height="19.333" rx="2" ry="2" transform="translate(20 1023)"/><rect width="145.354" height="19.333" rx="2" ry="2" transform="translate(20 1037)"/><rect width="186.75" height="19.333" rx="2" ry="2" transform="translate(20 1051)"/><rect width="188.763" height="19.333" rx="2" ry="2" transform="translate(20 1065)"/><rect width="159.021" height="19.333" rx="2" ry="2" transform="translate(20 1079)"/><rect width="209.531" height="19.333" rx="2" ry="2" transform="translate(20 1100)"/><rect width="37.935" height="19.333" rx="2" ry="2" transform="translate(115.333 954)"/><rect width="66.017" height="19.333" rx="2" ry="2" transform="translate(364 942)"/><rect width="90.729" height="21.333" rx="2" ry="2" transform="translate(467.302 984)"/><rect width="88.917" height="19.333" rx="2" ry="2" transform="translate(370 1009)"/><rect width="142.865" height="19.333" rx="2" ry="2" transform="translate(370 1030)"/><rect width="153.667" height="19.333" rx="2" ry="2" transform="translate(370 1044)"/><rect width="114.063" height="19.333" rx="2" ry="2" transform="translate(370 1055)"/><rect width="93.563" height="21.333" rx="2" ry="2" transform="translate(466.219 1102)"/><rect width="184.123" height="19.333" rx="2" ry="2" transform="translate(370 1127)"/><rect width="104.558" height="19.333" rx="2" ry="2" transform="translate(370 1141)"/><rect width="161.406" height="19.333" rx="2" ry="2" transform="translate(370 1162)"/><rect width="191.135" height="19.333" rx="2" ry="2" transform="translate(370 1176)"/><rect width="144.327" height="19.333" rx="2" ry="2" transform="translate(268.167 1214)"/><rect width="99.094" height="21.333" rx="2" ry="2" transform="translate(43.453 1242)"/><rect width="100.104" height="19.333" rx="2" ry="2" transform="translate(20 1267)"/><rect width="90.938" height="21.333" rx="2" ry="2" transform="translate(217.531 1242)"/><rect width="155.258" height="19.333" rx="2" ry="2" transform="translate(190 1267)"/><rect width="100.104" height="19.333" rx="2" ry="2" transform="translate(190 1281)"/><rect width="100.51" height="21.333" rx="2" ry="2" transform="translate(383.745 1242)"/><rect width="155.258" height="19.333" rx="2" ry="2" transform="translate(360 1267)"/><rect width="100.104" height="19.333" rx="2" ry="2" transform="translate(360 1281)"/><rect width="79.375" height="21.333" rx="2" ry="2" transform="translate(560.313 1242)"/><rect width="124.046" height="19.333" rx="2" ry="2" transform="translate(532 1267)"/><rect width="100.104" height="19.333" rx="2" ry="2" transform="translate(532 1281)"/><rect width="85.456" height="21.333" rx="2" ry="2" transform="translate(50.276 1334)"/><rect width="124.046" height="19.333" rx="2" ry="2" transform="translate(20 1359)"/><rect width="100.104" height="19.333" rx="2" ry="2" transform="translate(20 1373)"/><rect width="151.573" height="21.333" rx="2" ry="2" transform="translate(264.214 1442)"/><rect width="248.014" height="19.333" rx="2" ry="2" transform="translate(215.938 1468)"/><rect width="280.594" height="19.333" rx="2" ry="2" transform="translate(199.703 1482)"/><rect width="162.448" height="19.333" rx="2" ry="2" transform="translate(258.776 1498)"/><rect width="51.573" height="19.333" rx="2" ry="2" transform="translate(111.891 324)"/><rect width="51.573" height="19.333" rx="2" ry="2" transform="translate(345.891 324)"/><rect width="51.573" height="19.333" rx="2" ry="2" transform="translate(553.891 324)"/><rect width="51.573" height="19.333" rx="2" ry="2" transform="translate(21.891 498)"/><rect width="51.573" height="19.333" rx="2" ry="2" transform="translate(21.891 660)"/><rect width="51.573" height="19.333" rx="2" ry="2" transform="translate(21.891 824)"/></mask></g><text dx="0" dy="0" font-family="&quot;Anthropic Sans&quot;" font-size="12" font-weight="400" transform="translate(24 465)" fill="#f0997b"><tspan font-family="&quot;Anthropic Sans&quot;" font-size="12" font-weight="400" font-style="normal" transform="translate(24 465)" fill="#f0997b"><![CDATA[
+ update(platforms[], count)
]]></tspan></text><text dx="0" dy="0" font-family="&quot;Anthropic Sans&quot;" font-size="12" font-weight="400" transform="translate(24 479)" fill="#f0997b"><![CDATA[
+ draw(window)
]]></text></g><rect width="224" height="82" rx="5" ry="5" transform="translate(14 10)" fill="none" stroke="rgba(222,220,209,0.3)" stroke-width="0.5"/><text dx="0" dy="0" font-family="&quot;Anthropic Sans&quot;" font-size="12" font-weight="500" transform="translate(24 28)" fill="#c2c0b6"><![CDATA[
Legend
]]></text><path d="M24,44h46" fill="none" stroke="#c2c0b6" stroke-width="1.2"/><text dx="0" dy="0" font-family="&quot;Anthropic Sans&quot;" font-size="12" font-weight="400" transform="translate(78 48)" fill="#c2c0b6"><tspan y="0" font-weight="400"><![CDATA[
Inheritance 
]]></tspan></text><path d="M24,62h46" fill="none" stroke="#c2c0b6" stroke-dasharray="4,3"/><text dx="0" dy="0" font-family="&quot;Anthropic Sans&quot;" font-size="12" font-weight="400" transform="translate(78 66)" fill="#c2c0b6"><tspan y="0" font-weight="400"><![CDATA[
Association 
]]></tspan></text><path d="M24,80h46" fill="none" stroke="#c2c0b6" stroke-width="1.2"/><text dx="0" dy="0" font-family="&quot;Anthropic Sans&quot;" font-size="12" font-weight="400" transform="translate(78 84)" fill="#c2c0b6"><tspan y="0" font-weight="400"><![CDATA[
◆ Composition  
]]></tspan></text><g transform="matrix(1.062465 -0.004942 0.006875 1.477972 -45.351834 -75.749827)"><rect width="260" height="152" rx="5" ry="5" transform="translate(210 108)" fill="#712b13" stroke="#f0997b" stroke-width="0.5"/><text dx="0" dy="0" font-family="&quot;Anthropic Sans&quot;" font-size="12" font-weight="400" font-style="italic" transform="translate(340 126)" fill="#f0997b"><![CDATA[
«abstract»
]]></text><text dx="0" dy="0" font-family="&quot;Anthropic Sans&quot;" font-size="14" font-weight="500" transform="translate(340 142)" fill="#f5c4b3"><![CDATA[
Enemy
]]></text><path d="M210,150h260" stroke="rgba(222,220,209,0.3)" stroke-width="0.5"/><text dx="0" dy="0" font-family="&quot;Anthropic Sans&quot;" font-size="12" font-weight="400" transform="translate(220 165)" fill="#f0997b"><tspan y="0" font-weight="400"><![CDATA[
position : Vector2f
]]></tspan></text><text dx="0" dy="0" font-family="&quot;Anthropic Sans&quot;" font-size="12" font-weight="400" transform="translate(220 179)" fill="#f0997b"><tspan y="0" font-weight="400"><![CDATA[
speedE : float
]]></tspan></text><text dx="0" dy="0" font-family="&quot;Anthropic Sans&quot;" font-size="12" font-weight="400" transform="translate(220 193)" fill="#f0997b"><tspan y="0" font-weight="400"><![CDATA[
 healthE : float
]]></tspan></text><text dx="0" dy="0" font-family="&quot;Anthropic Sans&quot;" font-size="12" font-weight="400" transform="matrix(0.991064 0 0 1 215.908484 204.176665)" fill="#f0997b"><tspan y="0" font-weight="400"><![CDATA[
 zindaE : bool
]]></tspan></text><text dx="0" dy="0" font-family="&quot;Anthropic Sans&quot;" font-size="12" font-weight="400" transform="matrix(0.950424 0 0 1.052862 219.882576 212.869457)" fill="#f0997b"><tspan y="0" font-weight="400"><![CDATA[
cover : bool
]]></tspan></text><text dx="0" dy="0" font-family="&quot;Anthropic Sans&quot;" font-size="12" font-weight="400" transform="matrix(0.981566 0 0 1.306824 211.41166 227.35422)" fill="#f0997b"><tspan y="0" font-weight="400"><![CDATA[
 state : int   snowcover
]]></tspan></text><path d="M210,242h260" stroke="rgba(222,220,209,0.3)" stroke-width="0.5"/></g><rect width="260" height="56" rx="5" ry="5" transform="translate(210 242)" fill="none" stroke="rgba(222,220,209,0.3)" stroke-width="0.5"/><text dx="0" dy="0" font-family="&quot;Anthropic Sans&quot;" font-size="12" font-weight="400" transform="matrix(1.062111 -0.013214 0.01244 0.999923 191.770015 268.426913)" fill="#c2c0b6"><tspan font-family="&quot;Anthropic Sans&quot;" font-size="12" font-weight="400" font-style="normal" transform="translate(220 257)" fill="#c2c0b6"><![CDATA[
+ damage(h) / getZinda() : bool
]]></tspan></text><text dx="0" dy="0" font-family="&quot;Anthropic Sans&quot;" font-size="12" font-weight="400" transform="matrix(1.388099 -0.017269 0.009337 0.750479 193.184545 280.187005)" fill="#c2c0b6"><tspan font-family="&quot;Anthropic Sans&quot;" font-size="12" font-weight="400" font-style="normal" transform="matrix(1.062111 -0.013214 0.01244 0.999923 215.382366 271.982375)" fill="#c2c0b6"><![CDATA[
+ hitByBall() / kick(dir)
]]></tspan></text><text dx="0" dy="0" font-family="&quot;Anthropic Sans&quot;" font-size="12" font-weight="400" transform="matrix(1.062038 -0.018154 0.017091 0.999854 184.600325 295.358832)" fill="#c2c0b6"><![CDATA[
+ update(platforms[], count) «pure»
]]></text><g><rect width="202" height="122" rx="5" ry="5" transform="translate(232 360)" fill="#791f1f" stroke="#f09595" stroke-width="0.5"/><text dx="0" dy="0" font-family="&quot;Anthropic Sans&quot;" font-size="14" font-weight="500" transform="translate(333 380)" fill="#f7c1c1"><![CDATA[
Mogera
]]></text><path d="M232,388h202" stroke="rgba(222,220,209,0.3)" stroke-width="0.5"/><text dx="0" dy="0" font-family="&quot;Anthropic Sans&quot;" font-size="12" font-weight="400" transform="translate(242 403)" fill="#f09595"><![CDATA[
- m_hitsRemaining : int
]]></text><text dx="0" dy="0" font-family="&quot;Anthropic Sans&quot;" font-size="12" font-weight="400" transform="translate(242 417)" fill="#f09595"><![CDATA[
- m_spawnTimer : float
]]></text><text dx="0" dy="0" font-family="&quot;Anthropic Sans&quot;" font-size="12" font-weight="400" transform="translate(242 431)" fill="#f09595"><![CDATA[
- Ghealthbar : RectShape
]]></text><path d="M232,437h202" stroke="rgba(222,220,209,0.3)" stroke-width="0.5"/><text dx="0" dy="0" font-family="&quot;Anthropic Sans&quot;" font-size="12" font-weight="400" transform="translate(242 452)" fill="#f09595"><![CDATA[
+ update(platforms[], count)
]]></text><text dx="0" dy="0" font-family="&quot;Anthropic Sans&quot;" font-size="12" font-weight="400" transform="translate(242 466)" fill="#f09595"><![CDATA[
+ draw(window)
]]></text><text dx="0" dy="0" font-family="&quot;Anthropic Sans&quot;" font-size="12" font-weight="400" transform="translate(242 480)" fill="#f09595"><![CDATA[
+ getZinda() : bool
]]></text></g><g><rect width="220" height="122" rx="5" ry="5" transform="translate(450 360)" fill="#791f1f" stroke="#f09595" stroke-width="0.5"/><text dx="0" dy="0" font-family="&quot;Anthropic Sans&quot;" font-size="14" font-weight="500" transform="translate(560 380)" fill="#f7c1c1"><![CDATA[
Gama
]]></text><path d="M450,388h220" stroke="rgba(222,220,209,0.3)" stroke-width="0.5"/><text dx="0" dy="0" font-family="&quot;Anthropic Sans&quot;" font-size="12" font-weight="400" transform="translate(460 403)" fill="#f09595"><![CDATA[
- rocket[5] : RectShape
]]></text><text dx="0" dy="0" font-family="&quot;Anthropic Sans&quot;" font-size="12" font-weight="400" transform="translate(460 417)" fill="#f09595"><![CDATA[
- rocketactive[5] : bool
]]></text><text dx="0" dy="0" font-family="&quot;Anthropic Sans&quot;" font-size="12" font-weight="400" transform="translate(460 431)" fill="#f09595"><![CDATA[
- rocketTime : float
]]></text><text dx="0" dy="0" font-family="&quot;Anthropic Sans&quot;" font-size="12" font-weight="400" transform="translate(460 445)" fill="#f09595"><![CDATA[
- Ghealthbar : RectShape
]]></text><path d="M450,451h220" stroke="rgba(222,220,209,0.3)" stroke-width="0.5"/><text dx="0" dy="0" font-family="&quot;Anthropic Sans&quot;" font-size="12" font-weight="400" transform="translate(460 466)" fill="#f09595"><![CDATA[
+ update(platforms[], count)
]]></text><text dx="0" dy="0" font-family="&quot;Anthropic Sans&quot;" font-size="12" font-weight="400" transform="translate(460 480)" fill="#f09595"><![CDATA[
+ draw(window)
]]></text></g><path d="M333,360v-24" fill="none" stroke="#c2c0b6"/><g><rect width="202" height="122" rx="5" ry="5" transform="translate(14 524)" fill="#712b13" stroke="#f0997b" stroke-width="0.5"/><text dx="0" dy="0" font-family="&quot;Anthropic Sans&quot;" font-size="14" font-weight="500" transform="translate(115 544)" fill="#f5c4b3"><![CDATA[
FlyingFooga
]]></text><path d="M14,552h202" stroke="rgba(222,220,209,0.3)" stroke-width="0.5"/><text dx="0" dy="0" font-family="&quot;Anthropic Sans&quot;" font-size="12" font-weight="400" transform="translate(24 567)" fill="#f0997b"><![CDATA[
- flyingE : bool
]]></text><text dx="0" dy="0" font-family="&quot;Anthropic Sans&quot;" font-size="12" font-weight="400" transform="translate(24 581)" fill="#f0997b"><![CDATA[
- flyx : float
]]></text><text dx="0" dy="0" font-family="&quot;Anthropic Sans&quot;" font-size="12" font-weight="400" transform="translate(24 595)" fill="#f0997b"><![CDATA[
- flyy : float
]]></text><text dx="0" dy="0" font-family="&quot;Anthropic Sans&quot;" font-size="12" font-weight="400" transform="translate(24 609)" fill="#f0997b"><![CDATA[
- flyTime : float
]]></text><path d="M14,615h202" stroke="rgba(222,220,209,0.3)" stroke-width="0.5"/><text dx="0" dy="0" font-family="&quot;Anthropic Sans&quot;" font-size="12" font-weight="400" transform="translate(24 630)" fill="#f0997b"><![CDATA[
+ update(platforms[], count)
]]></text><text dx="0" dy="0" font-family="&quot;Anthropic Sans&quot;" font-size="12" font-weight="400" transform="translate(24 644)" fill="#f0997b"><![CDATA[
+ draw(window)
]]></text></g><g transform="translate(-8 0)"><rect width="202" height="108" rx="5" ry="5" transform="translate(232 524)" fill="#444441" stroke="#b4b2a9" stroke-width="0.5"/><text dx="0" dy="0" font-family="&quot;Anthropic Sans&quot;" font-size="14" font-weight="500" transform="translate(333 544)" fill="#d3d1c7"><![CDATA[
Mchild
]]></text><path d="M232,552h202" stroke="rgba(222,220,209,0.3)" stroke-width="0.5"/><text dx="0" dy="0" font-family="&quot;Anthropic Sans&quot;" font-size="12" font-weight="400" transform="translate(242 567)" fill="#b4b2a9"><![CDATA[
- jumpMC : float
]]></text><text dx="0" dy="0" font-family="&quot;Anthropic Sans&quot;" font-size="12" font-weight="400" transform="translate(242 581)" fill="#b4b2a9"><![CDATA[
- groundMC : bool
]]></text><text dx="0" dy="0" font-family="&quot;Anthropic Sans&quot;" font-size="12" font-weight="400" transform="translate(242 602)" fill="#b4b2a9"><![CDATA[
+ update(platforms[], count)
]]></text><text dx="0" dy="0" font-family="&quot;Anthropic Sans&quot;" font-size="12" font-weight="400" transform="translate(242 616)" fill="#b4b2a9"><![CDATA[
+ draw(window)
]]></text></g><g><rect width="202" height="122" rx="5" ry="5" transform="translate(14 686)" fill="#712b13" stroke="#f0997b" stroke-width="0.5"/><text dx="0" dy="0" font-family="&quot;Anthropic Sans&quot;" font-size="14" font-weight="500" transform="translate(115 706)" fill="#f5c4b3"><![CDATA[
Tornado
]]></text><path d="M14,714h202" stroke="rgba(222,220,209,0.3)" stroke-width="0.5"/><text dx="0" dy="0" font-family="&quot;Anthropic Sans&quot;" font-size="12" font-weight="400" transform="translate(24 729)" fill="#f0997b"><![CDATA[
- knife : RectangleShape
]]></text><text dx="0" dy="0" font-family="&quot;Anthropic Sans&quot;" font-size="12" font-weight="400" transform="translate(24 743)" fill="#f0997b"><![CDATA[
- knifeTime : float
]]></text><text dx="0" dy="0" font-family="&quot;Anthropic Sans&quot;" font-size="12" font-weight="400" transform="translate(24 757)" fill="#f0997b"><![CDATA[
- zindaK : bool
]]></text><text dx="0" dy="0" font-family="&quot;Anthropic Sans&quot;" font-size="12" font-weight="400" transform="translate(24 771)" fill="#f0997b"><![CDATA[
- knifex / knifey : float
]]></text><path d="M14,777h202" stroke="rgba(222,220,209,0.3)" stroke-width="0.5"/><text dx="0" dy="0" font-family="&quot;Anthropic Sans&quot;" font-size="12" font-weight="400" transform="translate(24 792)" fill="#f0997b"><![CDATA[
+ update(platforms,count,playerPos)
]]></text><text dx="0" dy="0" font-family="&quot;Anthropic Sans&quot;" font-size="12" font-weight="400" transform="translate(24 806)" fill="#f0997b"><![CDATA[
+ getK_Bounds() / setK_Act()
]]></text></g><g><rect width="202" height="108" rx="5" ry="5" transform="translate(14 850)" fill="#712b13" stroke="#f0997b" stroke-width="0.5"/><text dx="0" dy="0" font-family="&quot;Anthropic Sans&quot;" font-size="14" font-weight="500" transform="translate(115 870)" fill="#f5c4b3"><![CDATA[
InvisibleEnemy
]]></text><path d="M14,878h202" stroke="rgba(222,220,209,0.3)" stroke-width="0.5"/><text dx="0" dy="0" font-family="&quot;Anthropic Sans&quot;" font-size="12" font-weight="400" transform="translate(24 893)" fill="#f0997b"><![CDATA[
- see : bool
]]></text><text dx="0" dy="0" font-family="&quot;Anthropic Sans&quot;" font-size="12" font-weight="400" transform="translate(24 907)" fill="#f0997b"><![CDATA[
- seeTime : float
]]></text><path d="M14,913h202" stroke="rgba(222,220,209,0.3)" stroke-width="0.5"/><text dx="0" dy="0" font-family="&quot;Anthropic Sans&quot;" font-size="12" font-weight="400" transform="translate(24 928)" fill="#f0997b"><![CDATA[
+ update(platforms,count,pos)
]]></text><text dx="0" dy="0" font-family="&quot;Anthropic Sans&quot;" font-size="12" font-weight="400" transform="translate(24 942)" fill="#f0997b"><![CDATA[
+ draw(window)
]]></text></g><g transform="matrix(0.816966 0 0 1 127.534576 -2.582825)"><rect width="294" height="200" rx="5" ry="5" transform="translate(370 524)" fill="#085041" stroke="#5dcaa5" stroke-width="0.5"/><text dx="0" dy="0" font-family="&quot;Anthropic Sans&quot;" font-size="12" font-weight="400" font-style="italic" transform="translate(517 542)" fill="#5dcaa5"><![CDATA[
: sf::Drawable
]]></text><text dx="0" dy="0" font-family="&quot;Anthropic Sans&quot;" font-size="14" font-weight="500" transform="translate(517 558)" fill="#9fe1cb"><![CDATA[
Player
]]></text><path d="M370,566h294" stroke="rgba(222,220,209,0.3)" stroke-width="0.5"/><text dx="0" dy="0" font-family="&quot;Anthropic Sans&quot;" font-size="12" font-weight="400" transform="translate(380 581)" fill="#5dcaa5"><![CDATA[
- ball[10] : SnowBall
]]></text><text dx="0" dy="0" font-family="&quot;Anthropic Sans&quot;" font-size="12" font-weight="400" transform="translate(380 595)" fill="#5dcaa5"><![CDATA[
- ballcount : int  = 10
]]></text><text dx="0" dy="0" font-family="&quot;Anthropic Sans&quot;" font-size="12" font-weight="400" transform="translate(380 609)" fill="#5dcaa5"><![CDATA[
- lives : int = 2
]]></text><text dx="0" dy="0" font-family="&quot;Anthropic Sans&quot;" font-size="12" font-weight="400" transform="translate(380 623)" fill="#5dcaa5"><![CDATA[
- score : int
]]></text><text dx="0" dy="0" font-family="&quot;Anthropic Sans&quot;" font-size="12" font-weight="400" transform="translate(380 637)" fill="#5dcaa5"><![CDATA[
- gems : int
]]></text><text dx="0" dy="0" font-family="&quot;Anthropic Sans&quot;" font-size="12" font-weight="400" transform="translate(380 651)" fill="#5dcaa5"><![CDATA[
- hit : bool / hitTimer : int
]]></text><text dx="0" dy="0" font-family="&quot;Anthropic Sans&quot;" font-size="12" font-weight="400" transform="translate(380 665)" fill="#5dcaa5"><![CDATA[
- isPlayer2 : bool
]]></text><text dx="0" dy="0" font-family="&quot;Anthropic Sans&quot;" font-size="12" font-weight="400" transform="translate(380 679)" fill="#5dcaa5"><![CDATA[
- isdead : bool
]]></text><path d="M370,685h294" stroke="rgba(222,220,209,0.3)" stroke-width="0.5"/><text dx="0" dy="0" font-family="&quot;Anthropic Sans&quot;" font-size="12" font-weight="400" transform="translate(380 700)" fill="#5dcaa5"><![CDATA[
+ update(platforms[], enemies[])
]]></text><text dx="0" dy="0" font-family="&quot;Anthropic Sans&quot;" font-size="12" font-weight="400" transform="translate(380 714)" fill="#5dcaa5"><![CDATA[
+ lifedown() / addScore(pts)
]]></text><text dx="0" dy="0" font-family="&quot;Anthropic Sans&quot;" font-size="12" font-weight="400" transform="translate(380 724)" fill="#5dcaa5"><![CDATA[
+ draw(target, states)
]]></text></g><rect width="140" height="44" rx="5" ry="5" transform="translate(370 756)" fill="none" stroke="rgba(222,220,209,0.15)" stroke-width="0.5" stroke-dasharray="3,2"/><text dx="0" dy="0" font-family="&quot;Anthropic Sans&quot;" font-size="14" font-weight="500" transform="translate(440 776)" fill="#faf9f5"><![CDATA[
SnowBall
]]></text><text dx="0" dy="0" font-family="&quot;Anthropic Sans&quot;" font-size="12" font-weight="400" transform="translate(440 792)" fill="#c2c0b6"><![CDATA[
«composed 1..10»
]]></text><rect width="134" height="58" rx="5" ry="5" transform="translate(530 756)" fill="none" stroke="rgba(222,220,209,0.3)" stroke-width="0.5"/><text dx="0" dy="0" font-family="&quot;Anthropic Sans&quot;" font-size="14" font-weight="500" transform="translate(597 776)" fill="#faf9f5"><![CDATA[
Platform
]]></text><path d="M530,784h134" stroke="rgba(222,220,209,0.3)" stroke-width="0.5"/><text dx="0" dy="0" font-family="&quot;Anthropic Sans&quot;" font-size="12" font-weight="400" transform="translate(540 799)" fill="#c2c0b6"><![CDATA[
- platform : RectShape
]]></text><text dx="0" dy="0" font-family="&quot;Anthropic Sans&quot;" font-size="12" font-weight="400" transform="translate(540 812)" fill="#c2c0b6"><tspan font-family="&quot;Anthropic Sans&quot;" font-size="12" font-weight="400" font-style="normal" transform="translate(540 812)" fill="#c2c0b6"><![CDATA[
+ getBounds() / draw()
]]></tspan></text><rect width="124" height="80" rx="5" ry="5" transform="translate(232 686)" fill="none" stroke="rgba(222,220,209,0.15)" stroke-width="0.5" stroke-dasharray="4,2"/><text dx="0" dy="0" font-family="&quot;Anthropic Sans&quot;" font-size="14" font-weight="500" transform="translate(294 706)" fill="#faf9f5"><![CDATA[
Collision
]]></text><text dx="0" dy="0" font-family="&quot;Anthropic Sans&quot;" font-size="12" font-weight="400" transform="translate(294 720)" fill="#c2c0b6"><![CDATA[
«utility»
]]></text><text dx="0" dy="0" font-family="&quot;Anthropic Sans&quot;" font-size="12" font-weight="400" transform="translate(242 740)" fill="#c2c0b6"><![CDATA[
+ BotomCollision()
]]></text><text dx="0" dy="0" font-family="&quot;Anthropic Sans&quot;" font-size="12" font-weight="400" transform="translate(242 754)" fill="#c2c0b6"><![CDATA[
+ TornadoCollision()
]]></text><text dx="0" dy="0" font-family="&quot;Anthropic Sans&quot;" font-size="12" font-weight="400" transform="translate(242 766)" fill="#c2c0b6"><![CDATA[
+ FlyingFoogaCollision()
]]></text><path d="M356,726h14v-66" opacity="0.6" fill="none" stroke="#9c9a92" stroke-width="0.8" stroke-dasharray="4,2"/><rect width="290" height="82" rx="5" ry="5" transform="translate(370 850)" fill="none" stroke="rgba(222,220,209,0.3)" stroke-width="0.5"/><text dx="0" dy="0" font-family="&quot;Anthropic Sans&quot;" font-size="14" font-weight="500" transform="translate(515 870)" fill="#faf9f5"><![CDATA[
HUD
]]></text><path d="M370,878h290" stroke="rgba(222,220,209,0.3)" stroke-width="0.5"/><text dx="0" dy="0" font-family="&quot;Anthropic Sans&quot;" font-size="12" font-weight="400" transform="translate(380 893)" fill="#c2c0b6"><![CDATA[
+ update(score, lives, level, gem,
]]></text><text dx="0" dy="0" font-family="&quot;Anthropic Sans&quot;" font-size="12" font-weight="400" transform="translate(380 907)" fill="#c2c0b6"><![CDATA[
          score2, lives2, gem2, multi)
]]></text><text dx="0" dy="0" font-family="&quot;Anthropic Sans&quot;" font-size="12" font-weight="400" transform="translate(380 921)" fill="#c2c0b6"><![CDATA[
+ draw(window)
]]></text><path d="M515,850v-20h2v-106" opacity="0.6" fill="none" stroke="#9c9a92" stroke-width="0.8" stroke-dasharray="4,2"/><g><rect width="330" height="130" rx="5" ry="5" transform="matrix(1 0 0 1.169231 7 973.99997)" fill="#0c447c" stroke="#85b7eb" stroke-width="0.5"/><text dx="0" dy="0" font-family="&quot;Anthropic Sans&quot;" font-size="14" font-weight="500" transform="translate(179 1000)" fill="#b5d4f4"><![CDATA[
LevelSystem
]]></text><path d="M14,1008h330" stroke="rgba(222,220,209,0.3)" stroke-width="0.5"/><text dx="0" dy="0" font-family="&quot;Anthropic Sans&quot;" font-size="12" font-weight="400" transform="translate(24 1023)" fill="#85b7eb"><![CDATA[
- botoms[] : Botom[5]
]]></text><text dx="0" dy="0" font-family="&quot;Anthropic Sans&quot;" font-size="12" font-weight="400" transform="translate(24 1037)" fill="#85b7eb"><![CDATA[
- foogas[] : FlyingFooga[2]
]]></text><text dx="0" dy="0" font-family="&quot;Anthropic Sans&quot;" font-size="12" font-weight="400" transform="translate(24 1051)" fill="#85b7eb"><![CDATA[
- tornados[] : Tornado[2]
]]></text><text dx="0" dy="0" font-family="&quot;Anthropic Sans&quot;" font-size="12" font-weight="400" transform="translate(24 1065)" fill="#85b7eb"><![CDATA[
- invisibles[] : InvisibleEnemy[5]
]]></text><text dx="0" dy="0" font-family="&quot;Anthropic Sans&quot;" font-size="12" font-weight="400" transform="translate(24 1079)" fill="#85b7eb"><![CDATA[
- mogera : Mogera  / gama : Gama
]]></text><text dx="0" dy="0" font-family="&quot;Anthropic Sans&quot;" font-size="12" font-weight="400" transform="translate(24 1093)" fill="#85b7eb"><![CDATA[
- platforms[] : Platform[20]
]]></text><path d="M14,1099h330" stroke="rgba(222,220,209,0.3)" stroke-width="0.5"/><text dx="0" dy="0" font-family="&quot;Anthropic Sans&quot;" font-size="12" font-weight="400" transform="translate(24 1114)" fill="#85b7eb"><![CDATA[
+ loadLevel(n) / nextLevel() / draw()
]]></text></g><text dx="0" dy="0" font-family="&quot;Anthropic Sans&quot;" font-size="12" font-weight="400" font-style="italic" transform="translate(120 968)" opacity="0.7" fill="#c2c0b6"><![CDATA[
owns
]]></text><text dx="0" dy="0" font-family="&quot;Anthropic Sans&quot;" font-size="12" font-weight="400" font-style="italic" transform="translate(368 956)" opacity="0.7" fill="#c2c0b6"><tspan font-family="&quot;Anthropic Sans&quot;" font-size="12" font-weight="400" font-style="italic" transform="translate(368 956)" opacity="0.7" fill="#c2c0b6"><![CDATA[
◆ owns all
]]></tspan></text><g><rect width="298" height="92" rx="5" ry="5" transform="translate(364 980)" fill="#0c447c" stroke="#85b7eb" stroke-width="0.5"/><text dx="0" dy="0" font-family="&quot;Anthropic Sans&quot;" font-size="14" font-weight="500" transform="translate(513 1000)" fill="#b5d4f4"><![CDATA[
AuthSystem
]]></text><path d="M364,1008h298" stroke="rgba(222,220,209,0.3)" stroke-width="0.5"/><text dx="0" dy="0" font-family="&quot;Anthropic Sans&quot;" font-size="12" font-weight="400" transform="translate(374 1023)" fill="#85b7eb"><![CDATA[
- log_in : string
]]></text><path d="M364,1029h298" stroke="rgba(222,220,209,0.3)" stroke-width="0.5"/><text dx="0" dy="0" font-family="&quot;Anthropic Sans&quot;" font-size="12" font-weight="400" transform="translate(374 1044)" fill="#85b7eb"><![CDATA[
+ login(user, pass) : bool
]]></text><text dx="0" dy="0" font-family="&quot;Anthropic Sans&quot;" font-size="12" font-weight="400" transform="translate(374 1058)" fill="#85b7eb"><![CDATA[
+ signup(user, pass) : bool
]]></text><text dx="0" dy="0" font-family="&quot;Anthropic Sans&quot;" font-size="12" font-weight="400" transform="translate(374 1069)" fill="#85b7eb"><![CDATA[
+ getUser() : string
]]></text></g><g><rect width="298" height="92" rx="5" ry="5" transform="translate(364 1098)" fill="#0c447c" stroke="#85b7eb" stroke-width="0.5"/><text dx="0" dy="0" font-family="&quot;Anthropic Sans&quot;" font-size="14" font-weight="500" transform="translate(513 1118)" fill="#b5d4f4"><![CDATA[
Leaderboard
]]></text><path d="M364,1126h298" stroke="rgba(222,220,209,0.3)" stroke-width="0.5"/><text dx="0" dy="0" font-family="&quot;Anthropic Sans&quot;" font-size="12" font-weight="400" transform="translate(374 1141)" fill="#85b7eb"><![CDATA[
- board[10] : Entry{name,score}
]]></text><text dx="0" dy="0" font-family="&quot;Anthropic Sans&quot;" font-size="12" font-weight="400" transform="translate(374 1155)" fill="#85b7eb"><![CDATA[
- entryCount : int
]]></text><path d="M364,1161h298" stroke="rgba(222,220,209,0.3)" stroke-width="0.5"/><text dx="0" dy="0" font-family="&quot;Anthropic Sans&quot;" font-size="12" font-weight="400" transform="translate(374 1176)" fill="#85b7eb"><![CDATA[
+ updateScore(user, score)
]]></text><text dx="0" dy="0" font-family="&quot;Anthropic Sans&quot;" font-size="12" font-weight="400" transform="translate(374 1190)" fill="#85b7eb"><![CDATA[
+ update(event) / draw(window)
]]></text></g><text dx="0" dy="0" font-family="&quot;Anthropic Sans&quot;" font-size="12" font-weight="400" font-style="italic" transform="translate(340 1228)" fill="#c2c0b6"><![CDATA[
— Screen / UI Classes —
]]></text><rect width="158" height="68" rx="5" ry="5" transform="translate(14 1238)" fill="none" stroke="rgba(222,220,209,0.3)" stroke-width="0.5"/><text dx="0" dy="0" font-family="&quot;Anthropic Sans&quot;" font-size="14" font-weight="500" transform="translate(93 1258)" fill="#faf9f5"><![CDATA[
SplashScreen
]]></text><path d="M14,1266h158" stroke="rgba(222,220,209,0.3)" stroke-width="0.5"/><text dx="0" dy="0" font-family="&quot;Anthropic Sans&quot;" font-size="12" font-weight="400" transform="translate(24 1281)" fill="#c2c0b6"><![CDATA[
+ draw(window)
]]></text><rect width="158" height="68" rx="5" ry="5" transform="translate(184 1238)" fill="none" stroke="rgba(222,220,209,0.3)" stroke-width="0.5"/><text dx="0" dy="0" font-family="&quot;Anthropic Sans&quot;" font-size="14" font-weight="500" transform="translate(263 1258)" fill="#faf9f5"><![CDATA[
LoginScreen
]]></text><path d="M184,1266h158" stroke="rgba(222,220,209,0.3)" stroke-width="0.5"/><text dx="0" dy="0" font-family="&quot;Anthropic Sans&quot;" font-size="12" font-weight="400" transform="translate(194 1281)" fill="#c2c0b6"><![CDATA[
+ update(event, auth) : int
]]></text><text dx="0" dy="0" font-family="&quot;Anthropic Sans&quot;" font-size="12" font-weight="400" transform="translate(194 1295)" fill="#c2c0b6"><![CDATA[
+ draw(window)
]]></text><rect width="160" height="68" rx="5" ry="5" transform="translate(354 1238)" fill="none" stroke="rgba(222,220,209,0.3)" stroke-width="0.5"/><text dx="0" dy="0" font-family="&quot;Anthropic Sans&quot;" font-size="14" font-weight="500" transform="translate(434 1258)" fill="#faf9f5"><![CDATA[
SignupScreen
]]></text><path d="M354,1266h160" stroke="rgba(222,220,209,0.3)" stroke-width="0.5"/><text dx="0" dy="0" font-family="&quot;Anthropic Sans&quot;" font-size="12" font-weight="400" transform="translate(364 1281)" fill="#c2c0b6"><![CDATA[
+ update(event, auth) : int
]]></text><text dx="0" dy="0" font-family="&quot;Anthropic Sans&quot;" font-size="12" font-weight="400" transform="translate(364 1295)" fill="#c2c0b6"><![CDATA[
+ draw(window)
]]></text><rect width="148" height="68" rx="5" ry="5" transform="translate(526 1238)" fill="none" stroke="rgba(222,220,209,0.3)" stroke-width="0.5"/><text dx="0" dy="0" font-family="&quot;Anthropic Sans&quot;" font-size="14" font-weight="500" transform="translate(600 1258)" fill="#faf9f5"><![CDATA[
MainMenu
]]></text><path d="M526,1266h148" stroke="rgba(222,220,209,0.3)" stroke-width="0.5"/><text dx="0" dy="0" font-family="&quot;Anthropic Sans&quot;" font-size="12" font-weight="400" transform="translate(536 1281)" fill="#c2c0b6"><![CDATA[
+ update(event) : int
]]></text><text dx="0" dy="0" font-family="&quot;Anthropic Sans&quot;" font-size="12" font-weight="400" transform="translate(536 1295)" fill="#c2c0b6"><![CDATA[
+ draw(window)
]]></text><rect width="158" height="68" rx="5" ry="5" transform="translate(14 1330)" fill="none" stroke="rgba(222,220,209,0.3)" stroke-width="0.5"/><text dx="0" dy="0" font-family="&quot;Anthropic Sans&quot;" font-size="14" font-weight="500" transform="translate(93 1350)" fill="#faf9f5"><![CDATA[
LevelSelect
]]></text><path d="M14,1358h158" stroke="rgba(222,220,209,0.3)" stroke-width="0.5"/><text dx="0" dy="0" font-family="&quot;Anthropic Sans&quot;" font-size="12" font-weight="400" transform="translate(24 1373)" fill="#c2c0b6"><![CDATA[
+ update(event) : int
]]></text><text dx="0" dy="0" font-family="&quot;Anthropic Sans&quot;" font-size="12" font-weight="400" transform="translate(24 1387)" fill="#c2c0b6"><![CDATA[
+ draw(window)
]]></text><rect width="480" height="96" rx="5" ry="5" transform="translate(100 1436)" fill="none" stroke="rgba(222,220,209,0.15)" stroke-width="0.5" stroke-dasharray="5,3"/><text dx="0" dy="0" font-family="&quot;Anthropic Sans&quot;" font-size="14" font-weight="500" transform="translate(340 1458)" fill="#faf9f5"><![CDATA[
main.cpp  «game loop»
]]></text><path d="M100,1466h480" stroke="rgba(222,220,209,0.15)" stroke-width="0.5"/><text dx="0" dy="0" font-family="&quot;Anthropic Sans&quot;" font-size="12" font-weight="400" transform="translate(340 1482)" fill="#c2c0b6"><![CDATA[
gameState : int  (0=splash 1=login 2=signup
]]></text><text dx="0" dy="0" font-family="&quot;Anthropic Sans&quot;" font-size="12" font-weight="400" transform="translate(340 1496)" fill="#c2c0b6"><![CDATA[
3=menu 4=levelselect 5=playing 6=leaderboard)
]]></text><text dx="0" dy="0" font-family="&quot;Anthropic Sans&quot;" font-size="12" font-weight="400" transform="translate(340 1512)" fill="#c2c0b6"><![CDATA[
multiPl : bool / paused : bool
]]></text><path d="M340,1436v-36h-77v-94" opacity="0.5" fill="none" stroke="#9c9a92" stroke-width="0.8" stroke-dasharray="4,2"/><path d="M340,1436v-36" opacity="0.5" fill="none" stroke="#9c9a92" stroke-width="0.8" stroke-dasharray="4,2"/><path d="M340,1400h260v-94" opacity="0.5" fill="none" stroke="#9c9a92" stroke-width="0.8" stroke-dasharray="4,2"/><path d="M340,1400h94v-94" opacity="0.5" fill="none" stroke="#9c9a92" stroke-width="0.8" stroke-dasharray="4,2"/><text dx="0" dy="0" font-family="&quot;Anthropic Sans&quot;" font-size="12" font-weight="400" font-style="italic" transform="matrix(0.999989 -0.004651 0.004651 0.999989 138.005253 340.258927)" opacity="0.75" fill="#c2c0b6"><![CDATA[
inherits
]]></text><text dx="0" dy="0" font-family="&quot;Anthropic Sans&quot;" font-size="12" font-weight="400" font-style="italic" transform="translate(372 338)" opacity="0.75" fill="#c2c0b6"><![CDATA[
inherits
]]></text><text dx="0" dy="0" font-family="&quot;Anthropic Sans&quot;" font-size="12" font-weight="400" font-style="italic" transform="translate(580 338)" opacity="0.75" fill="#c2c0b6"><![CDATA[
inherits
]]></text><text dx="0" dy="0" font-family="&quot;Anthropic Sans&quot;" font-size="12" font-weight="400" font-style="italic" transform="matrix(1.024961 0 0 2.821661 35.87771 511.999889)" opacity="0.75" fill="#c2c0b6"><tspan font-family="&quot;Anthropic Sans&quot;" font-size="12" font-weight="400" font-style="italic" transform="translate(48 512)" opacity="0.75" fill="#c2c0b6"><![CDATA[
inherits
]]></tspan></text><text dx="0" dy="0" font-family="&quot;Anthropic Sans&quot;" font-size="12" font-weight="400" font-style="italic" transform="translate(48 674)" opacity="0.75" fill="#c2c0b6"><![CDATA[
inherits
]]></text><text dx="0" dy="0" font-family="&quot;Anthropic Sans&quot;" font-size="12" font-weight="400" font-style="italic" transform="translate(48 838)" opacity="0.75" fill="#c2c0b6"><tspan font-family="&quot;Anthropic Sans&quot;" font-size="12" font-weight="400" font-style="italic" transform="translate(48 838)" opacity="0.75" fill="#c2c0b6"><![CDATA[
inherits
]]></tspan></text><rect width="68.4" height="198" rx="0" ry="0" transform="translate(560 1418)" fill="rgba(237,210,210,0)" stroke-width="0"/></svg>
